<svg width="16" height="16" viewBox="0 0 16 16" fill="none" xmlns="http://www.w3.org/2000/svg">
<path fill-rule="evenodd" clip-rule="evenodd" d="M10.0086 1.33334L11.1526 2.65534C11.1526 2.65534 12.1573 2.37134 12.6313 2.85468C12.9243 3.15339 13.2128 3.45654 13.4966 3.76401L13.19 4.53201L13.58 5.66868C13.58 5.66868 12.4313 10.102 12.2966 10.644C12.0313 11.71 11.85 12.122 11.0966 12.662C10.2737 13.2486 9.44208 13.8229 8.60198 14.3847C8.41065 14.518 8.19665 14.6667 7.99998 14.6667C7.80331 14.6667 7.58864 14.5173 7.39731 14.3847C7.34531 14.3478 7.29509 14.3138 7.24664 14.2827C6.45776 13.7537 5.67635 13.2136 4.90265 12.6627C4.14931 12.122 3.96798 11.7093 3.70264 10.644C3.56798 10.1027 2.41931 5.66868 2.41931 5.66868L2.80998 4.53201L2.50331 3.76401C2.50331 3.76401 2.89331 3.33734 3.36798 2.85468C3.84198 2.37134 4.84664 2.65534 4.84664 2.65534L5.99065 1.33334H10.0086ZM5.16731 3.49401C5.16731 3.49401 3.69598 5.30668 3.69598 5.69401C3.69598 6.01401 3.82265 6.13934 3.97198 6.28734C4.00309 6.31801 4.03487 6.35045 4.06731 6.38468L5.17064 7.57801L5.20664 7.61601C5.31664 7.72868 5.47931 7.89468 5.36465 8.17068L5.34131 8.22668C5.21531 8.52601 5.06131 8.89468 5.25798 9.26868C5.46731 9.66668 5.82665 9.93201 6.05731 9.88868C6.28731 9.84401 6.82798 9.55668 7.02665 9.42468C7.22531 9.29268 7.85531 8.76401 7.85531 8.56134C7.85531 8.39268 7.40198 8.11134 7.18198 7.97468L7.08398 7.91268L6.97598 7.84334C6.77531 7.71668 6.41264 7.48601 6.40331 7.38468C6.39198 7.25934 6.39665 7.22201 6.55865 6.91201C6.59265 6.84601 6.63331 6.77534 6.67465 6.70201C6.82931 6.43201 7.00131 6.12868 6.96331 5.91268C6.92064 5.66734 6.54331 5.52734 6.22531 5.40801L6.10865 5.36468L5.77665 5.23801C5.53184 5.1466 5.28826 5.05126 5.04598 4.95334C4.96598 4.91534 4.98598 4.88001 5.23064 4.85601L5.34931 4.84334C5.65265 4.81001 6.21065 4.75001 6.48265 4.82734L6.65865 4.87601C6.96331 4.96068 7.33731 5.06334 7.37331 5.12268L7.39131 5.15068C7.42598 5.20068 7.44798 5.23268 7.40998 5.44401L7.34731 5.78268C7.26265 6.23068 7.13131 6.93201 7.11465 7.08934L7.10731 7.15268C7.08598 7.32801 7.07198 7.44468 7.27198 7.49134L7.32398 7.50334C7.54931 7.55668 7.87998 7.63334 7.99998 7.63334C8.11931 7.63334 8.44998 7.55601 8.67531 7.50334L8.72731 7.49134C8.92731 7.44468 8.91331 7.32801 8.89198 7.15268L8.88531 7.08934C8.86798 6.93201 8.73665 6.23268 8.65198 5.78468L8.58931 5.44468C8.55131 5.23268 8.57331 5.20068 8.60798 5.15134L8.62598 5.12268C8.66198 5.06334 9.03598 4.96068 9.34064 4.87601L9.51731 4.82734C9.78865 4.75001 10.3473 4.81068 10.65 4.84334L10.7686 4.85601C11.0133 4.87934 11.034 4.91601 10.9533 4.95334C10.8953 4.98068 10.5413 5.11601 10.2226 5.23734L9.89065 5.36401L9.77464 5.40801C9.45531 5.52734 9.07931 5.66801 9.03598 5.91268C8.99731 6.12934 9.17065 6.43201 9.32465 6.70268C9.36598 6.77534 9.40664 6.84601 9.44131 6.91201C9.60264 7.22201 9.60731 7.25868 9.59598 7.38468C9.58665 7.48668 9.22398 7.71601 9.02265 7.84334C8.97598 7.87268 8.93798 7.89668 8.91598 7.91268L8.81731 7.97468C8.59731 8.11134 8.14398 8.39268 8.14398 8.56134C8.14398 8.76401 8.77398 9.29334 8.97264 9.42468C9.17131 9.55668 9.71265 9.84468 9.94265 9.88801C10.1726 9.93201 10.532 9.66668 10.7413 9.26868C10.9386 8.89534 10.784 8.52601 10.6586 8.22668L10.6346 8.17068C10.5206 7.89468 10.6826 7.72868 10.7926 7.61601L10.8286 7.57868L11.932 6.38468C11.9649 6.35001 11.9969 6.31757 12.028 6.28734C12.1766 6.13934 12.3033 6.01401 12.3033 5.69401C12.3033 5.30668 10.832 3.49401 10.832 3.49401C10.832 3.49401 9.58998 3.73601 9.42265 3.73601C9.28931 3.73601 9.03131 3.64534 8.76265 3.55134L8.55798 3.48001C8.22265 3.36668 7.99998 3.36534 7.99998 3.36534H8.00598H7.99398H7.99998C7.99598 3.36534 7.77331 3.36734 7.44131 3.48001C7.37376 3.50312 7.30576 3.5269 7.23731 3.55134C6.96798 3.64534 6.71065 3.73601 6.57731 3.73601C6.40931 3.73601 5.16731 3.49401 5.16731 3.49401ZM8.95931 10.014C8.56598 9.80734 8.07598 9.63068 7.99931 9.63068C7.92265 9.63068 7.43265 9.80734 7.03998 10.0147L6.79065 10.1453C6.52731 10.2833 6.34131 10.3813 6.27065 10.4267C6.17931 10.4847 6.23531 10.594 6.31798 10.6533C6.40131 10.7133 7.51598 11.5933 7.62465 11.6907L7.66798 11.7307C7.77198 11.826 7.90531 11.948 7.99998 11.948C8.09398 11.948 8.22664 11.826 8.33131 11.7307L8.37531 11.6907C8.80626 11.3396 9.24163 10.9941 9.68131 10.654C9.76398 10.594 9.81998 10.4847 9.72865 10.4267C9.65865 10.3813 9.47198 10.284 9.20998 10.146L8.95931 10.014Z" fill="white"/>
</svg>
