<svg width="16" height="16" viewBox="0 0 16 16" fill="none" xmlns="http://www.w3.org/2000/svg">
<path d="M11.9334 7.26668C9.80004 6.00001 6.23337 5.86668 4.20004 6.50001C3.86671 6.60001 3.53337 6.40001 3.43337 6.10001C3.33337 5.76668 3.53337 5.43334 3.83337 5.33334C6.20004 4.63334 10.1 4.76668 12.5667 6.23334C12.8667 6.40001 12.9667 6.80001 12.8 7.10001C12.6334 7.33334 12.2334 7.43334 11.9334 7.26668ZM11.8667 9.13334C11.7 9.36668 11.4 9.46668 11.1667 9.30001C9.36671 8.20001 6.63337 7.86668 4.53337 8.53334C4.26671 8.60001 3.96671 8.46668 3.90004 8.20001C3.83337 7.93334 3.96671 7.63334 4.23337 7.56668C6.66671 6.83334 9.66671 7.20001 11.7334 8.46668C11.9334 8.56668 12.0334 8.90001 11.8667 9.13334ZM11.0667 10.9667C10.9334 11.1667 10.7 11.2333 10.5 11.1C8.93337 10.1333 6.96671 9.93334 4.63337 10.4667C4.40004 10.5333 4.20004 10.3667 4.13337 10.1667C4.06671 9.93334 4.23337 9.73334 4.43337 9.66668C6.96671 9.10001 9.16671 9.33334 10.9 10.4C11.1334 10.5 11.1667 10.7667 11.0667 10.9667ZM8.00004 1.33334C7.12456 1.33334 6.25766 1.50578 5.44882 1.84081C4.63998 2.17584 3.90505 2.66691 3.286 3.28596C2.03575 4.53621 1.33337 6.2319 1.33337 8.00001C1.33337 9.76812 2.03575 11.4638 3.286 12.7141C3.90505 13.3331 4.63998 13.8242 5.44882 14.1592C6.25766 14.4942 7.12456 14.6667 8.00004 14.6667C9.76815 14.6667 11.4638 13.9643 12.7141 12.7141C13.9643 11.4638 14.6667 9.76812 14.6667 8.00001C14.6667 7.12453 14.4943 6.25762 14.1592 5.44879C13.8242 4.63995 13.3331 3.90502 12.7141 3.28596C12.095 2.66691 11.3601 2.17584 10.5513 1.84081C9.74243 1.50578 8.87552 1.33334 8.00004 1.33334Z" fill="white"/>
</svg>
