<svg width="16" height="16" viewBox="0 0 16 16" fill="none" xmlns="http://www.w3.org/2000/svg">
<path d="M6.24467 1.5H9.75533C10.4833 1.5 11.0607 1.5 11.5253 1.538C12.0013 1.57667 12.4033 1.658 12.7713 1.84467C13.3671 2.14856 13.8513 2.63328 14.1547 3.22933C14.342 3.596 14.4233 3.99867 14.462 4.47467C14.5 4.93933 14.5 5.51667 14.5 6.24467V9.75533C14.5 10.4833 14.5 11.0607 14.462 11.5253C14.4233 12.0013 14.342 12.4033 14.1553 12.7713C13.8516 13.367 13.3671 13.8512 12.7713 14.1547C12.4033 14.342 12.0013 14.4233 11.5253 14.462C11.0607 14.5 10.4833 14.5 9.75533 14.5H6.24467C5.51667 14.5 4.93933 14.5 4.47467 14.462C3.99867 14.4233 3.59667 14.342 3.22933 14.1553C2.63343 13.8517 2.14894 13.3672 1.84533 12.7713C1.658 12.4033 1.57667 12.0013 1.538 11.5253C1.5 11.0607 1.5 10.4833 1.5 9.75533V6.24467C1.5 5.51667 1.5 4.93933 1.538 4.47467C1.57667 3.99867 1.658 3.59667 1.84467 3.22933C2.14845 2.63332 2.63318 2.14883 3.22933 1.84533C3.596 1.658 3.99867 1.57667 4.47467 1.538C4.93933 1.5 5.51667 1.5 6.24467 1.5ZM5.68667 5.64667C5.59188 5.55835 5.46652 5.51026 5.33699 5.51255C5.20745 5.51484 5.08386 5.56731 4.99225 5.65892C4.90064 5.75053 4.84817 5.87412 4.84588 6.00365C4.8436 6.13319 4.89168 6.25855 4.98 6.35333L6.62667 8L4.98 9.64667C4.93088 9.69244 4.89147 9.74764 4.86415 9.80898C4.83682 9.87031 4.82212 9.93652 4.82094 10.0037C4.81975 10.0708 4.8321 10.1375 4.85725 10.1997C4.8824 10.262 4.91983 10.3185 4.96731 10.366C5.01479 10.4135 5.07134 10.4509 5.1336 10.4761C5.19586 10.5012 5.26255 10.5136 5.32968 10.5124C5.39682 10.5112 5.46303 10.4965 5.52436 10.4692C5.58569 10.4419 5.64089 10.4025 5.68667 10.3533L7.68667 8.35333C7.7803 8.25958 7.83289 8.1325 7.83289 8C7.83289 7.8675 7.7803 7.74042 7.68667 7.64667L5.68667 5.64667ZM8.66667 9.5C8.53406 9.5 8.40688 9.55268 8.31311 9.64645C8.21935 9.74022 8.16667 9.86739 8.16667 10C8.16667 10.1326 8.21935 10.2598 8.31311 10.3536C8.40688 10.4473 8.53406 10.5 8.66667 10.5H10.6667C10.7993 10.5 10.9265 10.4473 11.0202 10.3536C11.114 10.2598 11.1667 10.1326 11.1667 10C11.1667 9.86739 11.114 9.74022 11.0202 9.64645C10.9265 9.55268 10.7993 9.5 10.6667 9.5H8.66667Z" fill="white"/>
</svg>
