<svg width="14" height="14" viewBox="0 0 14 14" fill="none" xmlns="http://www.w3.org/2000/svg">
<g clip-path="url(#clip0_1709_816)">
<path fill-rule="evenodd" clip-rule="evenodd" d="M9.92768 13.9044C10.0391 13.9478 10.1582 13.9679 10.2777 13.9633C10.3972 13.9587 10.5145 13.9295 10.6222 13.8777L13.5046 12.4907C13.653 12.4193 13.7783 12.3074 13.8659 12.1679C13.9536 12.0284 14.0001 11.867 14 11.7022V2.29784C14.0001 2.13308 13.9536 1.97166 13.8659 1.83215C13.7783 1.69264 13.653 1.58072 13.5046 1.50925L10.6222 0.122485C10.4593 0.0441185 10.2761 0.0183165 10.098 0.0486501C9.91978 0.0789837 9.75543 0.163953 9.62766 0.291798L4.1097 5.32589L1.70629 3.50141C1.59785 3.41913 1.46405 3.37739 1.32806 3.38342C1.19208 3.38945 1.0625 3.44288 0.961774 3.53444L0.190899 4.23564C0.130824 4.29028 0.0828157 4.35686 0.0499442 4.43111C0.0170727 4.50537 6.19378e-05 4.58567 1.68827e-07 4.66687C-6.16001e-05 4.74808 0.016827 4.8284 0.0495855 4.90271C0.082344 4.97701 0.130251 5.04366 0.190242 5.09839L2.2746 6.99998L0.190352 8.90169C0.130393 8.95643 0.0825147 9.02307 0.0497765 9.09737C0.0170384 9.17166 0.00016081 9.25197 0.000222573 9.33315C0.000284335 9.41434 0.0172841 9.49462 0.0501352 9.56886C0.0829864 9.64311 0.130966 9.70968 0.191008 9.76433L0.961883 10.4655C1.06259 10.5571 1.19217 10.6106 1.32815 10.6166C1.46414 10.6227 1.59795 10.5809 1.7064 10.4987L4.10981 8.6743L9.62777 13.7083C9.71318 13.7937 9.81521 13.8604 9.92768 13.9044ZM10.5021 3.82188L6.31535 6.99998L10.5022 10.1782L10.5021 3.82188Z" fill="white"/>
</g>
<defs>
<clipPath id="clip0_1709_816">
<rect width="14" height="14" fill="white"/>
</clipPath>
</defs>
</svg>
